<?xml version="1.0" standalone="no"?><!DOCTYPE svg PUBLIC "-//W3C//DTD SVG 1.1//EN" "http://www.w3.org/Graphics/SVG/1.1/DTD/svg11.dtd"><svg t="1546497967465" class="icon" style="" viewBox="0 0 1024 1024" version="1.1" xmlns="http://www.w3.org/2000/svg" p-id="8962" xmlns:xlink="http://www.w3.org/1999/xlink" width="200" height="200"><defs><style type="text/css"></style></defs><path d="M850.944 676.864c-52.224-26.624-94.208-35.84-126.976-44.032-41.984-10.24-67.584-15.36-91.136-49.152-25.6-35.84-2.048-72.704 39.936-128 14.336-18.432 28.672-37.888 39.936-57.344 18.432-32.768 23.552-59.392 15.36-80.896-4.096-12.288-12.288-21.504-24.576-29.696 13.312-76.8 4.096-136.192-28.672-176.128C642.048 71.68 586.752 51.2 512 51.2s-129.024 20.48-159.744 60.416c-31.744 39.936-38.912 99.328-23.552 177.152-11.264 7.168-19.456 17.408-23.552 28.672-8.192 21.504-3.072 48.128 15.36 80.896 11.264 19.456 25.6 38.912 38.912 57.344 41.984 55.296 65.536 92.16 39.936 129.024-22.528 32.768-50.176 38.912-95.232 49.152-35.84 7.168-78.848 17.408-132.096 44.032-87.04 43.008-126.976 136.192-118.784 276.48 0 10.24 8.192 18.432 19.456 18.432h876.544c11.264 0 19.456-8.192 20.48-19.456 6.144-140.288-33.792-233.472-118.784-276.48zM516.096 931.84H92.16c-2.048-111.616 30.72-185.344 97.28-218.112 48.128-24.576 88.064-32.768 122.88-40.96 47.104-10.24 88.064-19.456 120.832-65.536 45.056-63.488 0-123.904-39.936-176.128-13.312-17.408-26.624-35.84-36.864-53.248-15.36-28.672-14.336-41.984-12.288-47.104 1.024-2.048 3.072-8.192 16.384-13.312 10.24-4.096 15.36-14.336 12.288-23.552-17.408-71.68-13.312-124.928 12.288-157.696C407.552 107.52 450.56 92.16 512 92.16c62.464 0 106.496 15.36 130.048 45.056 26.624 32.768 32.768 86.016 17.408 157.696-2.048 10.24 3.072 19.456 13.312 23.552 13.312 5.12 15.36 11.264 16.384 13.312 2.048 5.12 3.072 18.432-12.288 47.104-9.216 17.408-23.552 35.84-36.864 53.248-39.936 53.248-84.992 113.664-39.936 176.128 31.744 46.08 70.656 55.296 114.688 65.536 32.768 7.168 69.632 16.384 117.76 39.936 65.536 32.768 98.304 106.496 97.28 218.112H516.096z" p-id="8963"></path></svg>