<?xml version="1.0" standalone="no"?><!DOCTYPE svg PUBLIC "-//W3C//DTD SVG 1.1//EN" "http://www.w3.org/Graphics/SVG/1.1/DTD/svg11.dtd"><svg t="1546497988092" class="icon" style="" viewBox="0 0 1024 1024" version="1.1" xmlns="http://www.w3.org/2000/svg" p-id="9146" xmlns:xlink="http://www.w3.org/1999/xlink" width="200" height="200"><defs><style type="text/css"></style></defs><path d="M511.845376 0C229.625856 0 0 229.608909 0 511.866522 0 794.085734 229.625856 1023.711693 511.845376 1023.711693 794.102784 1023.711693 1023.72864 794.085734 1023.72864 511.866522 1023.72864 229.608909 794.102784 0 511.845376 0L511.845376 0ZM511.845376 990.568755C247.877632 990.568755 33.142784 775.832678 33.142784 511.860838 33.142784 247.89463 247.877632 33.148621 511.845376 33.148621 775.817216 33.148621 990.585856 247.89463 990.585856 511.860838 990.585856 775.826995 775.817216 990.568755 511.845376 990.568755L511.845376 990.568755ZM259.966976 259.972454 437.187072 586.523341 773.242368 773.259162 586.534912 437.186918 259.966976 259.972454 259.966976 259.972454ZM511.860736 585.713818C471.079936 585.713818 438.01344 552.64896 438.01344 511.860838 438.01344 471.078349 471.079936 438.013491 511.860736 438.013491 552.66048 438.013491 585.713664 471.078349 585.713664 511.860838 585.713664 552.64896 552.66048 585.713818 511.860736 585.713818L511.860736 585.713818Z" p-id="9147" fill="#2c2c2c"></path></svg>