<?xml version="1.0" standalone="no"?><!DOCTYPE svg PUBLIC "-//W3C//DTD SVG 1.1//EN" "http://www.w3.org/Graphics/SVG/1.1/DTD/svg11.dtd"><svg t="1546498009099" class="icon" style="" viewBox="0 0 1024 1024" version="1.1" xmlns="http://www.w3.org/2000/svg" p-id="9931" xmlns:xlink="http://www.w3.org/1999/xlink" width="200" height="200"><defs><style type="text/css"></style></defs><path d="M512 6.464646C233.94004 6.464646 8.605737 231.833859 8.605737 509.858909c0 278.026343 225.334303 503.394263 503.394263 503.394263 277.992727 0 503.394263-225.367919 503.394263-503.394263C1015.394263 231.833859 789.992727 6.464646 512 6.464646L512 6.464646zM218.312404 873.786182c40.02004-110.681212 144.681374-192.958061 256.827475-207.122101l0-42.718384c-75.160566-14.602343-133.818182-82.292364-133.818182-164.283475 0-92.672 76.544-167.798949 169.253495-167.798949 92.638384 0 164.730828 75.126949 164.730828 167.798949 0 77.527919-52.230465 142.03604-127.39103 161.193374l0 46.515717c112.144808 13.896404 218.952404 91.914343 260.794182 198.49697-81.132606 68.587313-185.479758 110.098101-300.039758 110.098101C398.590707 975.971556 298.061576 937.590949 218.312404 873.786182L218.312404 873.786182zM841.846949 839.158949c-42.679596-97.158465-127.164768-171.607919-231.090424-199.775677 63.36-34.901333 106.327919-102.284929 106.327919-179.722343 0-113.268364-91.834182-205.08703-205.084444-205.08703-113.283879 0-205.085737 91.823838-205.085737 205.08703 0 79.222949 44.974545 147.825778 110.775596 181.982384-103.196444 30.586828-186.192162 107.115313-226.570343 205.73996C101.829818 762.467556 45.892525 642.812121 45.892525 509.858909c0-257.433859 208.655515-466.106182 466.106182-466.106182 257.418343 0 466.107475 208.672323 466.107475 466.106182 0 128.581818-52.071434 244.962263-136.260525 329.293576L841.845657 839.158949zM841.846949 839.158949" p-id="9932"></path></svg>