<?xml version="1.0" standalone="no"?><!DOCTYPE svg PUBLIC "-//W3C//DTD SVG 1.1//EN" "http://www.w3.org/Graphics/SVG/1.1/DTD/svg11.dtd"><svg t="1546497860761" class="icon" style="" viewBox="0 0 1024 1024" version="1.1" xmlns="http://www.w3.org/2000/svg" p-id="7999" xmlns:xlink="http://www.w3.org/1999/xlink" width="200" height="200"><defs><style type="text/css"></style></defs><path d="M238.954483 976.194981c-3.221522 0-6.117618-0.324404-8.771178-1.028472-6.117618-1.624065-10.801515-5.90169-12.885066-11.640666-5.44118-15.267438 7.715076-35.516569 43.827237-85.272103 13.671003-18.840994 35.543176-48.94299 40.740797-62.099245-146.017449-71.249065-236.432935-208.713311-236.432935-360.252785 0-224.954982 200.213322-407.977982 446.309801-407.977982 246.12411 0.108476 446.391669 183.158082 446.391669 408.03222 0 224.954982-200.213322 408.005612-446.337431 408.005612-15.836423 0-73.090081 28.099289-119.082738 50.729768C317.079472 951.831962 265.510552 976.194981 238.954483 976.194981zM511.743138 75.643353c-230.802434 0-418.590176 170.570812-418.590176 380.258357 0 142.769319 86.787692 272.273907 226.498202 338.000947 5.224229 2.490847 8.906261 6.930162 10.367612 12.560663 4.169149 16.188457-10.205922 38.169105-46.453167 88.087353-11.884225 16.350147-28.451324 39.14334-35.868603 52.787736 27.63878-5.90169 85.380578-34.271145 132.807979-57.551455 67.594663-33.188435 110.095632-53.545019 131.291366-53.545019 230.802434 0 418.616783-170.59742 418.616783-380.284964C930.414159 246.349248 742.59981 75.751828 511.743138 75.643353z" p-id="8000" fill="#2c2c2c"></path></svg>