<?xml version="1.0" standalone="no"?><!DOCTYPE svg PUBLIC "-//W3C//DTD SVG 1.1//EN" "http://www.w3.org/Graphics/SVG/1.1/DTD/svg11.dtd"><svg t="1546480412404" class="icon" style="" viewBox="0 0 1316 1024" version="1.1" xmlns="http://www.w3.org/2000/svg" p-id="3131" xmlns:xlink="http://www.w3.org/1999/xlink" width="257.03125" height="200"><defs><style type="text/css"></style></defs><path d="M1097.142857 292.571429v438.857142H146.285714V292.571429h950.857143z m73.142857 329.142857h73.142857V402.285714h-73.142857V237.714286q0-8-5.142857-13.142857t-13.142857-5.142858H91.428571q-8 0-13.142857 5.142858t-5.142857 13.142857v548.571428q0 8 5.142857 13.142857t13.142857 5.142858h1060.571429q8 0 13.142857-5.142858t5.142857-13.142857v-164.571428z m146.285715-219.428572v219.428572q0 30.285714-21.428572 51.714285T1243.428571 694.857143v91.428571q0 37.714286-26.857142 64.571429t-64.571429 26.857143H91.428571q-37.714286 0-64.571428-26.857143T0 786.285714V237.714286q0-37.714286 26.857143-64.571429t64.571428-26.857143h1060.571429q37.714286 0 64.571429 26.857143t26.857142 64.571429v91.428571q30.285714 0 51.714286 21.428572T1316.571429 402.285714z" p-id="3132"></path></svg>