<?xml version="1.0" standalone="no"?><!DOCTYPE svg PUBLIC "-//W3C//DTD SVG 1.1//EN" "http://www.w3.org/Graphics/SVG/1.1/DTD/svg11.dtd"><svg t="1546480659025" class="icon" style="" viewBox="0 0 1024 1024" version="1.1" xmlns="http://www.w3.org/2000/svg" p-id="3876" xmlns:xlink="http://www.w3.org/1999/xlink" width="200" height="200"><defs><style type="text/css"></style></defs><path d="M613.483322 437.658851l-89.427752 89.421612L524.05557 305.607326c0-7.856945-6.358825-14.20963-14.20963-14.20963-7.856945 0-14.20963 6.352685-14.20963 14.20963l0 255.778454c0 1.847068 0.373507 3.694135 1.094938 5.429663 1.438769 3.481288 4.203742 6.246261 7.68503 7.691169 1.734504 0.716314 3.581572 1.089821 5.429663 1.089821 1.847068 0 3.689019-0.373507 5.429663-1.089821 1.746784-0.728594 3.321652-1.77032 4.635577-3.090385l113.667829-113.661689c5.553483-5.553483 5.553483-14.541181 0-20.095687C628.030643 432.111508 619.037828 432.111508 613.483322 437.658851zM509.84594 760.330832c-27.425629 0-49.740868 22.315238-49.740868 49.734728s22.315238 49.734728 49.740868 49.734728c27.424606 0 49.740868-22.315238 49.740868-49.734728S537.27157 760.330832 509.84594 760.330832zM509.84594 831.381028c-11.752672 0-21.314445-9.561773-21.314445-21.314445 0-11.752672 9.561773-21.314445 21.314445-21.314445s21.314445 9.561773 21.314445 21.314445C531.160385 821.818231 521.598612 831.381028 509.84594 831.381028zM268.25972 525.861706c-27.425629 0-49.740868 22.315238-49.740868 49.734728 0 27.425629 22.315238 49.734728 49.740868 49.734728s49.740868-22.309098 49.740868-49.734728C318.000588 548.176944 295.684326 525.861706 268.25972 525.861706zM268.25972 596.910878c-11.752672 0-21.314445-9.561773-21.314445-21.314445s9.561773-21.314445 21.314445-21.314445 21.314445 9.561773 21.314445 21.314445S280.012392 596.910878 268.25972 596.910878zM701.691293 575.596434c0 27.425629 22.315238 49.734728 49.740868 49.734728s49.734728-22.309098 49.734728-49.734728c0-27.41949-22.309098-49.734728-49.734728-49.734728S701.691293 548.176944 701.691293 575.596434zM751.432161 554.280966c11.752672 0 21.314445 9.561773 21.314445 21.314445s-9.561773 21.314445-21.314445 21.314445-21.314445-9.561773-21.314445-21.314445S739.679489 554.280966 751.432161 554.280966zM919.878594 251.402797c-5.440919-33.013905-23.523763-80.529081-78.799694-119.345132-36.887119-25.90909-78.604242-39.603996-120.594589-39.603996-46.045709 0-89.599667 17.223267-108.361987 42.836621-2.25025 3.066849-3.173273 6.927783-2.563382 10.68741 0.60989 3.759627 2.717901 7.122211 5.825682 9.31311l120.494305 85.21173-14.553461 18.188244c-56.329936-39.467897-124.088156-63.625086-197.268876-66.407456l0-57.20077 42.636053 0c16.73208 0 28.420283-11.682064 28.420283-28.420283L595.112929 92.452645c0-16.73208-11.68718-28.420283-28.420283-28.420283L453.000258 64.032362c-16.73208 0-28.420283 11.68718-28.420283 28.420283l0 14.20963c0 16.738219 11.68718 28.420283 28.420283 28.420283l42.636053 0 0 57.20077c-73.086575 2.78237-140.760884 26.874067-197.043748 66.24782l-19.218714-24.216541 111.045095-80.19139c6.341429-4.582365 7.786337-13.433964 3.215228-19.805068-17.958-25.03314-59.604516-41.865503-103.626125-41.865503-40.119743 0-79.936587 13.351076-115.15367 38.603203-90.932012 65.211211-87.544869 166.29135-60.107983 204.564026 2.190899 3.066849 5.536087 5.132904 9.259898 5.748934 0.75827 0.124843 1.521656 0.178055 2.285043 0.178055 2.972705 0 5.885034-0.929162 8.324596-2.694365l121.701806-87.888699 19.586081 24.684192c-82.684164 67.810409-135.545092 170.708963-135.545092 285.73779 0 127.142725 64.566528 239.48435 162.620751 305.980833l-46.543036 69.811995c-4.357238 6.53688-2.593058 15.346523 3.942799 19.704784 2.427282 1.610684 5.16258 2.38635 7.869225 2.38635 4.594645 0 9.100262-2.220574 11.835559-6.323009l47.076178-70.611198c53.921074 30.80561 116.254747 48.514947 182.686762 48.514947 63.755046 0 123.786281-16.234753 176.184675-44.778856l54.299697 67.86976c2.818185 3.510964 6.939039 5.328355 11.113105 5.328355 3.108804 0 6.246261-1.01205 8.868995-3.108804 6.122441-4.913916 7.117095-13.848403 2.220574-19.983123l-51.907207-64.87966c101.435227-65.933665 168.701237-180.175569 168.701237-309.912375 0-114.922403-52.748365-217.737046-135.302569-285.554618l15.110139-18.881023 125.396965 88.675622c2.486634 1.76418 5.358031 2.611477 8.188496 2.611477 4.386914 0 8.703219-2.012843 11.480472-5.814426C919.405827 321.658907 925.55692 285.927101 919.878594 251.402797zM453.000258 106.663298l0.112564-14.20963 113.578802 0 0 14.20963L453.000258 106.663298zM131.47131 306.063721c-11.510148-33.357735-8.815783-102.595656 59.948347-151.909805 38.360679-27.508517 74.791403-33.280987 98.587366-33.280987 29.9358 0 55.30663 9.023514 70.226434 19.983123L131.47131 306.063721zM850.907757 561.38578c0 188.050933-153.005766 341.04442-341.061816 341.04442-62.352093 0-120.79618-16.897855-171.140799-46.229904-0.852414-3.232624-2.717901-6.222725-5.719258-8.224312-3.333932-2.214435-7.234775-2.818185-10.853186-2.042519-92.311429-61.096497-153.348574-165.806303-153.348574-284.547685 0-109.10286 51.564399-206.328205 131.536802-268.797979 1.829671-0.485047 3.606131-1.219781 5.180999-2.480494 1.468444-1.154289 2.593058-2.569522 3.463891-4.091178 56.389288-41.244356 125.82266-65.673745 200.881147-65.673745 74.921363 0 144.230915 24.346501 200.566992 65.448618 0.88823 1.746784 2.095731 3.345188 3.718695 4.647857 1.75804 1.409093 3.765767 2.148943 5.820566 2.605338C799.592021 355.526249 850.907757 452.550003 850.907757 561.38578zM887.75292 313.097928 645.669372 141.897777c15.790638-11.516288 42.85504-21.024849 74.814939-21.024849 25.186635 0 63.72537 5.980201 104.265692 34.441417 47.194882 33.144888 62.529125 73.063039 67.082838 100.706633C895.592468 278.875498 892.957455 299.124681 887.75292 313.097928z" p-id="3877"></path></svg>