<?xml version="1.0" standalone="no"?><!DOCTYPE svg PUBLIC "-//W3C//DTD SVG 1.1//EN" "http://www.w3.org/Graphics/SVG/1.1/DTD/svg11.dtd"><svg t="1546479846404" class="icon" style="" viewBox="0 0 1024 1024" version="1.1" xmlns="http://www.w3.org/2000/svg" p-id="2301" xmlns:xlink="http://www.w3.org/1999/xlink" width="200" height="200"><defs><style type="text/css"></style></defs><path d="M511.546 797.064m-92.132 0a92.132 92.132 0 1 0 184.264 0 92.132 92.132 0 1 0-184.264 0Z" fill="" p-id="2302"></path><path d="M946.081 359.272C888.748 301.94 821.67 257.126 746.708 226.076c-74.961-31.05-154.081-46.793-235.162-46.793-81.081 0-160.201 15.744-235.162 46.793-74.961 31.05-142.04 75.864-199.373 133.197-12.497 12.497-12.497 32.758 0 45.255 6.249 6.249 14.438 9.373 22.627 9.373s16.379-3.124 22.627-9.373c102.474-102.474 244.36-161.245 389.28-161.245 144.92 0 286.807 58.771 389.28 161.245 12.496 12.497 32.758 12.497 45.254 0 12.498-12.497 12.498-32.758 0.002-45.256z" fill="" p-id="2303"></path><path d="M693.753 386.563c-58.081-24.058-119.384-36.256-182.207-36.256-62.823 0-124.126 12.198-182.207 36.256-58.081 24.058-110.054 58.78-154.477 103.203-12.497 12.497-12.497 32.758 0 45.255 12.497 12.496 32.758 12.496 45.255 0 76.715-76.715 182.937-120.714 291.429-120.714 108.492 0 214.714 43.999 291.43 120.714 6.248 6.248 14.438 9.373 22.627 9.373s16.379-3.125 22.627-9.373c12.497-12.497 12.497-32.758 0-45.255-44.422-44.423-96.396-79.145-154.477-103.203zM629.626 569.877c-37.639-15.59-77.366-23.495-118.08-23.495-40.713 0-80.441 7.905-118.08 23.495-37.639 15.591-71.321 38.093-100.109 66.882-12.497 12.496-12.497 32.758 0 45.255 6.249 6.248 14.438 9.372 22.627 9.372s16.379-3.124 22.627-9.373c45.522-45.522 108.555-71.631 172.935-71.631s127.412 26.108 172.936 71.631c12.496 12.498 32.758 12.498 45.254 0 12.497-12.496 12.497-32.758 0-45.255-28.789-28.788-62.47-51.29-100.11-66.881z" fill="" p-id="2304"></path></svg>