<?xml version="1.0" standalone="no"?><!DOCTYPE svg PUBLIC "-//W3C//DTD SVG 1.1//EN" "http://www.w3.org/Graphics/SVG/1.1/DTD/svg11.dtd"><svg t="1546943949083" class="icon" style="" viewBox="0 0 1024 1024" version="1.1" xmlns="http://www.w3.org/2000/svg" p-id="22114" xmlns:xlink="http://www.w3.org/1999/xlink" width="128" height="128"><defs><style type="text/css"></style></defs><path d="M512 409.6c-84.8384 0-153.6 68.8128-153.6 153.6 0 84.7872 68.7616 153.6 153.6 153.6 84.7872 0 153.6-68.8128 153.6-153.6C665.6 478.4128 596.7872 409.6 512 409.6zM921.6 256l-122.88 0c-16.896 0-35.1232-13.1072-40.3968-29.184l-31.7952-95.2832C721.152 115.5072 703.0272 102.4 686.08 102.4L337.92 102.4C321.024 102.4 302.7968 115.5072 297.5232 131.4816L265.6768 226.816C260.352 242.8928 242.176 256 225.28 256L102.4 256C46.08 256 0 302.08 0 358.4l0 460.8c0 56.32 46.08 102.4 102.4 102.4l819.2 0c56.32 0 102.4-46.08 102.4-102.4L1024 358.4C1024 302.08 977.92 256 921.6 256zM512 819.2c-141.4144 0-256-114.5856-256-256 0-141.4144 114.5856-256 256-256 141.3632 0 256 114.5856 256 256C768 704.6144 653.3632 819.2 512 819.2zM896 419.84c-19.8144 0-35.84-16.0768-35.84-35.8912 0-19.712 16.0256-35.84 35.84-35.84s35.84 16.0768 35.84 35.84C931.84 403.7632 915.8144 419.84 896 419.84z" p-id="22115" fill="#ffffff"></path></svg>