<?xml version="1.0" standalone="no"?><!DOCTYPE svg PUBLIC "-//W3C//DTD SVG 1.1//EN" "http://www.w3.org/Graphics/SVG/1.1/DTD/svg11.dtd"><svg t="1546948426290" class="icon" style="" viewBox="0 0 1024 1024" version="1.1" xmlns="http://www.w3.org/2000/svg" p-id="24336" xmlns:xlink="http://www.w3.org/1999/xlink" width="128" height="128"><defs><style type="text/css"></style></defs><path d="M899.392 638.208l-27.2 0c-2.208-0.608-4.192-1.6-6.4-2.016-57.216-8.8-102.4-56.384-106.208-112.192-4.384-62.4 31.2-115.2 89.184-132.384 7.616-2.208 15.616-3.808 23.392-5.792l27.2 0c1.792 0.608 3.392 1.6 5.408 1.792 52.8 8.608 92.992 46.592 104.384 98.592 0.8 4 2.016 8 3.008 12l0 27.2c-0.608 1.792-1.6 3.616-1.792 5.408-8.384 52-45.408 91.616-96.8 103.616-4.992 1.216-9.6 2.592-14.208 3.808zM130.592 385.792l27.2 0c2.208 0.608 4.192 1.6 6.4 1.792 57.6 8.992 102.592 56.8 106.208 113.184 4 62.208-32 114.816-90.208 131.808-7.392 2.208-15.008 3.808-22.4 5.6l-27.2 0c-1.792-0.608-3.392-1.6-5.184-2.016-52-9.6-86.016-39.808-102.208-90.208-2.208-6.592-3.392-13.6-5.184-20.384l0-27.2c0.608-1.792 1.6-3.616 1.792-5.408 8.608-52.192 45.408-91.616 96.8-103.616 4.8-1.184 9.408-2.4 13.984-3.616zM501.408 385.792l27.2 0c2.208 0.608 4.192 1.6 6.4 2.016 57.408 8.992 103.616 58.592 106.016 114.592 2.784 63.008-35.2 116.384-93.792 131.392-6.208 1.6-12.384 3.008-18.592 4.384l-27.2 0c-2.208-0.608-4.192-1.6-6.4-2.016-57.408-8.8-103.616-58.592-106.208-114.592-3.008-63.008 35.2-116.384 93.792-131.392 6.4-1.6 12.608-3.008 18.816-4.384z" p-id="24337" fill="#566a93"></path></svg>