<?xml version="1.0" standalone="no"?><!DOCTYPE svg PUBLIC "-//W3C//DTD SVG 1.1//EN" "http://www.w3.org/Graphics/SVG/1.1/DTD/svg11.dtd"><svg t="1546497253757" class="icon" style="" viewBox="0 0 1024 1024" version="1.1" xmlns="http://www.w3.org/2000/svg" p-id="6926" xmlns:xlink="http://www.w3.org/1999/xlink" width="200" height="200"><defs><style type="text/css"></style></defs><path d="M880.1 230c2.3 3 3.5 6.5 3.4 10.5-0.2 4-1.7 7.3-4.7 10L174.2 864.6c-3 2.3-6.5 3.4-10.5 3.1s-7.2-2-9.6-4.9L116.7 820c-2.3-3-3.5-6.5-3.4-10.5 0.2-4 1.7-7.2 4.7-9.6l31-29.9c-5.6-9.5-8.5-19.3-8.5-29.5 14.8-12.5 28.5-25.6 40.7-39.2 12.2-13.7 24.9-31.5 37.9-53.3s24.2-45.4 33.2-70.8c9.1-25.3 16.5-56 22.3-91.9s8.7-74.7 8.7-116.1c0-45.3 17.4-87.3 52.2-126.1 34.8-38.9 80.5-62.4 137.1-70.8-2.3-5.6-3.6-11.5-3.6-17.4 0-11.9 4.1-22.1 12.5-30.3 8.4-8.4 18.5-12.5 30.3-12.5 11.9 0 22.1 4.1 30.3 12.5 8.4 8.4 12.5 18.5 12.5 30.3 0 5.9-1.2 11.7-3.6 17.4 36.9 5.4 69.5 17.7 97.7 36.8 28.3 19.2 50.3 42.6 66.1 70.3l107.4-94c3-2.3 6.5-3.4 10.5-3.1 4 0.3 7.2 2 9.6 4.9l37.8 42.8zM750.4 492.2c18.1 106 62.5 188.7 133.1 248.3 0 15.5-5.6 28.9-17 40.2s-24.7 17-40.2 17h-200c0 31.5-11.2 58.5-33.5 80.8S543.5 912 511.9 912s-58.4-11.1-80.6-33.2c-22.2-22.2-33.4-49-33.7-80.6l352.8-306zM512 876.1c4.8 0 7.1-2.3 7.1-7.1s-2.3-7.1-7.1-7.1c-17.6 0-32.7-6.3-45.4-19-12.7-12.7-19-27.8-19-45.4 0-4.8-2.3-7.1-7.1-7.1s-7.1 2.3-7.1 7.1c0 21.7 7.7 40.3 23 55.6 15.3 15.4 33.9 23 55.6 23z" p-id="6927" fill="#707070"></path></svg>