<?xml version="1.0" standalone="no"?><!DOCTYPE svg PUBLIC "-//W3C//DTD SVG 1.1//EN" "http://www.w3.org/Graphics/SVG/1.1/DTD/svg11.dtd"><svg t="1546918518124" class="icon" style="" viewBox="0 0 1024 1024" version="1.1" xmlns="http://www.w3.org/2000/svg" p-id="21311" xmlns:xlink="http://www.w3.org/1999/xlink" width="128" height="128"><defs><style type="text/css"></style></defs><path d="M907.1616 845.824h-2.6624l-185.3952-19.4048a361.4208 361.4208 0 0 1-73.984 7.5264c-175.0528 0-317.44-125.0304-317.44-278.7328S470.0672 276.48 645.12 276.48s317.44 125.0304 317.44 278.7328a257.536 257.536 0 0 1-64.2048 168.0896l32.8192 88.0128a25.6 25.6 0 0 1-23.9616 34.56z m-189.44-71.0144h2.6624l148.48 15.36-24.064-63.6416a25.6 25.6 0 0 1 5.5808-26.7264A208.64 208.64 0 0 0 911.36 555.2128C911.36 429.7216 791.9104 327.68 645.12 327.68s-266.24 102.0416-266.24 227.5328 119.4496 227.5328 266.24 227.5328a309.6064 309.6064 0 0 0 67.072-7.3216 25.6 25.6 0 0 1 5.5296-0.6144z" p-id="21312" fill="#ffffff"></path><path d="M129.3312 627.3024a25.6 25.6 0 0 1-23.9616-34.56l29.1328-78.2336A235.1616 235.1616 0 0 1 76.8 362.0352C76.8 221.696 206.6944 107.52 366.336 107.52c129.5872 0 244.2752 76.8 278.784 186.2144a25.6 25.6 0 0 1-22.1696 33.2288C478.976 339.456 370.3808 442.368 370.3808 566.3744a207.1552 207.1552 0 0 0 1.1776 21.248 25.6 25.6 0 0 1-27.136 28.16 329.5744 329.5744 0 0 1-45.1072-6.0928l-167.2704 17.5104zM366.336 158.72C234.9056 158.72 128 249.9072 128 362.0352a186.2144 186.2144 0 0 0 54.3232 129.0752 25.6 25.6 0 0 1 5.5808 26.7264l-20.1728 54.1184L297.984 558.08a25.6 25.6 0 0 1 8.2432 0.4608q6.4 1.4336 13.0048 2.56c2.6112-138.24 113.664-253.9008 265.3184-280.8832C547.072 207.4624 461.7728 158.72 366.336 158.72z" p-id="21313" fill="#ffffff"></path></svg>