<?xml version="1.0" standalone="no"?><!DOCTYPE svg PUBLIC "-//W3C//DTD SVG 1.1//EN" "http://www.w3.org/Graphics/SVG/1.1/DTD/svg11.dtd"><svg t="1546918413062" class="icon" style="" viewBox="0 0 1024 1024" version="1.1" xmlns="http://www.w3.org/2000/svg" p-id="20525" xmlns:xlink="http://www.w3.org/1999/xlink" width="128" height="128"><defs><style type="text/css"></style></defs><path d="M674.44337 476.278903l272.349124-298.485413c7.6922 8.63876 12.497651 20.577685 12.497651 33.780395l0 600.900326c0 12.473092-4.343939 23.732541-11.308568 32.177896L674.44337 476.278903zM78.663673 176.435561c7.426141-7.570427 17.181328-12.327782 27.980289-12.327782l810.713099 0c10.798961 0 20.530613 4.756332 27.980289 12.327782l-433.336839 383.031056L78.663673 176.435561zM76.018424 844.65313c-6.989188-8.445354-11.308568-19.704804-11.308568-32.177896L64.709855 211.574908c0-13.201686 4.780891-25.140612 12.497651-33.780395l272.324564 298.485413L76.018424 844.65313zM511.999488 654.350733l113.715015-124.63575 320.372932 317.16998c-7.497772 8.007379-17.592698 13.007258-28.731397 13.007258l-810.713099 0c-11.163258 0-21.233625-4.999879-28.75698-13.007258l320.397491-317.16998L511.999488 654.350733z" p-id="20526" fill="#ffffff"></path></svg>