<?xml version="1.0" standalone="no"?><!DOCTYPE svg PUBLIC "-//W3C//DTD SVG 1.1//EN" "http://www.w3.org/Graphics/SVG/1.1/DTD/svg11.dtd"><svg t="1546918360905" class="icon" style="" viewBox="0 0 1024 1024" version="1.1" xmlns="http://www.w3.org/2000/svg" p-id="18793" xmlns:xlink="http://www.w3.org/1999/xlink" width="128" height="128"><defs><style type="text/css"></style></defs><path d="M876.7 370h-24v-72.5c0-12.9-1.5-25.4-4.5-38.3-17.5-70.1-80.3-119-152.7-119H316.9c-65.7 0-125 41.3-147.6 102.9-6.4 17.2-9.7 35.5-9.7 54.4V370h-24v-72.5c0-21.8 3.8-42.9 11.2-62.7 12.6-34.3 35.2-63.8 65.2-85.2 30.7-21.8 67-33.4 104.9-33.4h378.6c41.2 0 80.1 13.5 112.5 39.1 31.4 24.8 53.9 59.6 63.5 98.1v0.2c3.5 14.7 5.2 29 5.2 43.9V370zM695.5 857.5H316.9c-73 0-138.6-43.5-167-110.8-9.4-22-14.2-45.7-14.2-70.4v-80.7h24v80.7c0 21.4 4.1 41.9 12.3 61 24.7 58.5 81.6 96.2 144.9 96.2h378.6c71.5 0 134.1-48.2 152.3-117.1 3.3-13.4 4.9-26.9 4.9-40.1v-80.7h24v80.7c0 15.1-1.9 30.6-5.7 45.9v0.2c-21 79.5-93.2 135.1-175.5 135.1zM67 454.7h886.4v24H67z" fill="#ffffff" p-id="18794"></path><path d="M686 747.6H542.4v-24H686c32.5 0 59-22.8 59-50.8v-61.1h24v61.1c0 41.3-37.3 74.8-83 74.8zM445.7 708.5h32.2v24h-32.2z" fill="#ffffff" p-id="18795"></path></svg>