<?xml version="1.0" standalone="no"?><!DOCTYPE svg PUBLIC "-//W3C//DTD SVG 1.1//EN" "http://www.w3.org/Graphics/SVG/1.1/DTD/svg11.dtd"><svg t="1546912071619" class="icon" style="" viewBox="0 0 1024 1024" version="1.1" xmlns="http://www.w3.org/2000/svg" p-id="14453" xmlns:xlink="http://www.w3.org/1999/xlink" width="128" height="128"><defs><style type="text/css"></style></defs><path d="M643.717842 637.344398c-4.248963 0-46.738589-42.489627-16.99585-118.970954 63.73444-63.73444 118.970954-169.958506 118.970954-276.182573 0-157.211618-114.721992-242.190871-233.692946-242.190871-123.219917 0-233.692946 80.73029-233.692946 242.190871 0 106.224066 46.738589 212.448133 114.721992 276.182573 25.493776 63.73444-16.995851 110.473029-29.742739 118.970954-131.717842 46.738589-280.431535 127.46888-280.431535 216.697096v29.742738c0 110.473029 220.946058 140.215768 429.145228 140.215768 203.950207 0 420.647303-25.493776 420.647303-140.215768v-29.742738c0-89.228216-157.211618-174.207469-288.929461-216.697096z" p-id="14454" fill="#000000"></path></svg>