<?xml version="1.0" standalone="no"?><!DOCTYPE svg PUBLIC "-//W3C//DTD SVG 1.1//EN" "http://www.w3.org/Graphics/SVG/1.1/DTD/svg11.dtd"><svg t="1546911530063" class="icon" style="" viewBox="0 0 1024 1024" version="1.1" xmlns="http://www.w3.org/2000/svg" p-id="2365" xmlns:xlink="http://www.w3.org/1999/xlink" width="128" height="128"><defs><style type="text/css"></style></defs><path d="M862.72 140.288h-696.32c-56.32 0-102.4 46.08-102.4 102.4v542.72c0 56.32 46.08 102.4 102.4 102.4h696.32c56.32 0 102.4-46.08 102.4-102.4v-542.72c0-56.32-46.08-102.4-102.4-102.4z m-747.52 133.12c0-56.32 25.6-81.92 81.92-81.92h634.88c56.32 0 81.92 25.6 81.92 81.92v332.288l-67.072-64.512c-40.448-39.424-105.472-37.888-144.896 2.56l-85.504 88.576-202.752-193.536c-40.96-38.912-105.984-37.376-144.896 3.584l-153.6 161.28V273.408z m717.312 563.2h-634.88c-56.32 0-81.92-25.6-81.92-81.92v-76.8l169.472-178.176c38.912-40.96 75.264-41.472 115.712-2.56l252.416 239.616 3.072 3.072 0.512-0.512c4.608 3.584 9.728 5.632 15.872 5.632 14.336 0 25.6-11.264 25.6-25.6 0-6.144-2.048-11.776-5.632-15.872-1.536-2.048-3.072-3.584-5.12-4.608l-33.28-31.232 64-66.048c39.424-40.448 75.264-40.96 115.712-2.048l80.384 77.824v77.312c-0.512 56.32-25.6 81.92-81.92 81.92z" fill="#000000" p-id="2366"></path><path d="M611.84 284.672c-50.688 0-92.16 41.472-92.16 92.16s41.472 92.16 92.16 92.16 92.16-41.472 92.16-92.16c0-51.2-40.96-92.16-92.16-92.16z m0 133.12c-22.528 0-40.96-18.432-40.96-40.96s18.432-40.96 40.96-40.96 40.96 18.432 40.96 40.96-17.92 40.96-40.96 40.96z" fill="#000000" p-id="2367"></path></svg>