<?xml version="1.0" standalone="no"?><!DOCTYPE svg PUBLIC "-//W3C//DTD SVG 1.1//EN" "http://www.w3.org/Graphics/SVG/1.1/DTD/svg11.dtd"><svg t="1546912081572" class="icon" style="" viewBox="0 0 1024 1024" version="1.1" xmlns="http://www.w3.org/2000/svg" p-id="15281" xmlns:xlink="http://www.w3.org/1999/xlink" width="128" height="128"><defs><style type="text/css"></style></defs><path d="M843.3 855.7h-670s-53.4 8.3-53.4-62.8V217.7s1.2-64 66.4-64h234.8s28.5-5.9 52.2 30.8c22.5 35.6 35.6 58.1 35.6 58.1s8.3 9.5 27.3 9.5h302.4s53.4-5.9 53.4 53.4v490.9c-0.1 0 8.2 59.3-48.7 59.3z m-49.9-450.6c0-14.2-11.9-26.1-26.1-26.1H245.6c-15.4 0-27.3 11.9-27.3 26.1v2.4c0 15.4 11.9 27.3 27.3 27.3h521.8c14.2 0 26.1-11.9 26.1-27.3v-2.4z m0 0" p-id="15282" fill="#000000"></path></svg>