<?xml version="1.0" standalone="no"?><!DOCTYPE svg PUBLIC "-//W3C//DTD SVG 1.1//EN" "http://www.w3.org/Graphics/SVG/1.1/DTD/svg11.dtd"><svg t="1546911585608" class="icon" style="" viewBox="0 0 1024 1024" version="1.1" xmlns="http://www.w3.org/2000/svg" p-id="3980" xmlns:xlink="http://www.w3.org/1999/xlink" width="128" height="128"><defs><style type="text/css"></style></defs><path d="M945.229 90.771l-866.458 0c-43.5 0-78.771 35.267-78.771 78.771l0 708.915c0 43.505 35.272 78.771 78.771 78.771l866.458 0c43.5 0 78.771-35.267 78.771-78.771l0-708.915c0-43.505-35.272-78.771-78.771-78.771zM945.229 878.458l-866.458 0 0-708.915 866.458 0 0 708.915zM275.692 445.229c43.505 0 78.771-35.267 78.771-78.766 0-43.525-35.267-78.771-78.771-78.771-43.459 0-78.766 35.246-78.766 78.771 0 43.505 35.302 78.766 78.766 78.766zM669.542 405.851l-233.426 321.859-121.042-164.326-196.92 275.697 787.692 0-236.303-433.229z" p-id="3981" fill="#000000"></path></svg>