<?xml version="1.0" standalone="no"?><!DOCTYPE svg PUBLIC "-//W3C//DTD SVG 1.1//EN" "http://www.w3.org/Graphics/SVG/1.1/DTD/svg11.dtd"><svg t="1546911566473" class="icon" style="" viewBox="0 0 1024 1024" version="1.1" xmlns="http://www.w3.org/2000/svg" p-id="3178" xmlns:xlink="http://www.w3.org/1999/xlink" width="128" height="128"><defs><style type="text/css"></style></defs><path d="M962.6 902.1H61.5c-34 0-61.5-27.6-61.5-61.6V306.7c0-34 27.5-61.6 61.5-61.6h184.3c61.4 0 81.9-123.2 122.9-123.2h266.2c60.9 0 84.2 123.2 143.4 123.2h184.3c33.9 0 61.4 27.6 61.4 61.6v533.8c0 34-27.5 61.6-61.4 61.6zM512 306.7c-135.7 0-245.7 110.3-245.7 246.4 0 136.1 110 246.4 245.7 246.4s245.8-110.3 245.8-246.4c0-136.1-110.1-246.4-245.8-246.4z m297 0c-17 0-30.7 13.8-30.7 30.8s13.8 30.8 30.7 30.8c17 0 30.7-13.8 30.7-30.8s-13.8-30.8-30.7-30.8zM512 737.9c-101.8 0-184.3-82.8-184.3-184.8 0-102 82.5-184.8 184.3-184.8 101.8 0 184.3 82.7 184.3 184.8 0 102-82.5 184.8-184.3 184.8zM102.4 183.5c0-11.3 9.2-20.6 20.5-20.6h61.4c11.3 0 20.5 9.2 20.5 20.6V204H102.4v-20.5z m0 0" p-id="3179" fill="#000000"></path></svg>