<?xml version="1.0" standalone="no"?><!DOCTYPE svg PUBLIC "-//W3C//DTD SVG 1.1//EN" "http://www.w3.org/Graphics/SVG/1.1/DTD/svg11.dtd"><svg t="1546911654104" class="icon" style="" viewBox="0 0 1024 1024" version="1.1" xmlns="http://www.w3.org/2000/svg" p-id="6371" xmlns:xlink="http://www.w3.org/1999/xlink" width="128" height="128"><defs><style type="text/css"></style></defs><path d="M952.80000031 159.66666636a4.56 4.56 0 0 1 7.23999938 3.68000062V418.66666667a4.56 4.56 0 0 1-7.23999938 3.67999969l-93-68.95999969v78.52000031a9.07999969 9.07999969 0 0 1-9.08000062 9.07999969h-321.84a9.07999969 9.07999969 0 0 1-9.07999969-9.07999969V150.10666667c0-5.04 4.08-9.12 9.07999969-9.12h321.84c4.99999969 0 9.07999969 4.08 9.08000062 9.12v78.52000031l93-68.96000062zM625.47999969 930.66666636c-21.31999969 0-42.79999969-3.91999969-63.36-12a915.52000031 915.52000031 0 0 1-312.67999969-205.44A915.67999969 915.67999969 0 0 1 44.04000031 400.54666667c-25.51999969-64.72000031-9.72-138.79999969 40.23999938-188.76l93.36-93.31999969a59.59999969 59.59999969 0 0 1 90.64000031 7.44l115.56 161.79999938a59.4 59.4 0 0 1-6.40000031 76.8l-72.36 72.40000031a705.12 705.12 0 0 0 220.72000031 220.68l72.40000031-72.40000031a59.44000031 59.44000031 0 0 1 76.75999969-6.36l161.76 115.52000062a59.68000031 59.68000031 0 0 1 7.48000031 90.67999969l-93.32000062 93.31999969A177.43999969 177.43999969 0 0 1 625.47999969 930.66666636zM217.20000031 192.02666698L140.88000031 268.34666698c-27.43999969 27.43999969-36.24 67.8-22.40000062 102.79999969A835.84000031 835.84000031 0 0 0 306.00000031 656.66666698a835.87999969 835.87999969 0 0 0 285.51999938 187.59999938c35.04 13.8 75.31999969 4.99999969 102.80000062-22.39999969l76.32-76.36000031-128.12000062-91.47999938-71.47999969 71.43999938a59.44000031 59.44000031 0 0 1-72.76000031 9.16000031 785.4 785.4 0 0 1-270.19999969-270.19999969 59.52 59.52 0 0 1 9.16000031-72.80000062l71.43999938-71.43999938L217.20000031 192.02666698z" fill="#000000" p-id="6372"></path></svg>