<?xml version="1.0" standalone="no"?><!DOCTYPE svg PUBLIC "-//W3C//DTD SVG 1.1//EN" "http://www.w3.org/Graphics/SVG/1.1/DTD/svg11.dtd"><svg t="1546511343273" class="icon" style="" viewBox="0 0 1024 1024" version="1.1" xmlns="http://www.w3.org/2000/svg" p-id="11916" xmlns:xlink="http://www.w3.org/1999/xlink" width="200" height="200"><defs><style type="text/css"></style></defs><path d="M844.1 327.7H716.8l-12.9-92c0-24.2-19.6-43.8-43.8-43.8H365.9c-24.2 0-43.8 19.6-43.8 43.8l-12.9 92H181.9c-39.4 0-71.4 32-71.4 71.4v361.2c0 39.4 32 71.4 71.4 71.4h662.3c39.4 0 71.4-32 71.4-71.4V399.1c0-39.5-32-71.4-71.5-71.4zM224.5 451.1c-15.3 0-27.8-12.4-27.8-27.8 0-15.3 12.4-27.8 27.8-27.8 15.3 0 27.8 12.4 27.8 27.8 0 15.3-12.4 27.8-27.8 27.8z m288.1 264.6c-88.5 0-160.5-72-160.5-160.5s72-160.5 160.5-160.5 160.5 72 160.5 160.5-72 160.5-160.5 160.5z" fill="#000000" p-id="11917"></path><path d="M512.6 556.1m-135.6 0a135.6 135.6 0 1 0 271.2 0 135.6 135.6 0 1 0-271.2 0Z" fill="#000000" p-id="11918"></path></svg>