<?xml version="1.0" standalone="no"?><!DOCTYPE svg PUBLIC "-//W3C//DTD SVG 1.1//EN" "http://www.w3.org/Graphics/SVG/1.1/DTD/svg11.dtd"><svg t="1546844819083" class="icon" style="" viewBox="0 0 1024 1024" version="1.1" xmlns="http://www.w3.org/2000/svg" p-id="10006" xmlns:xlink="http://www.w3.org/1999/xlink" width="200" height="200"><defs><style type="text/css"></style></defs><path d="M426.666667 955.733333c-51.694933 0-96.529067-18.619733-133.239467-55.3472C257.262933 864.221867 238.933333 819.677867 238.933333 768a17.066667 17.066667 0 1 1 34.133334 0c0 42.9056 14.557867 78.301867 44.4928 108.253867C348.074667 906.769067 383.761067 921.6 426.666667 921.6c42.871467 0 78.2336-14.7968 108.1344-45.243733 18.107733-17.5616 30.702933-37.3248 37.768533-59.016534l157.508267-375.0912c2.065067-5.2224 4.283733-11.042133 6.519466-17.152 0.546133-1.672533 1.211733-3.362133 1.8944-4.846933C746.752 395.605333 750.933333 369.066667 750.933333 341.333333c0-66.4576-22.9376-121.668267-70.0928-168.840533S578.4576 102.4 512 102.4s-121.668267 22.920533-168.840533 70.0928S273.066667 274.875733 273.066667 341.333333a17.066667 17.066667 0 0 1-34.133334 0c0-74.9056 26.948267-139.8272 80.093867-192.9728S437.0944 68.266667 512 68.266667c74.922667 0 139.8272 26.948267 192.9728 80.093866C758.1184 201.506133 785.066667 266.427733 785.066667 341.333333c0 31.829333-4.898133 62.378667-14.557867 90.8288a20.411733 20.411733 0 0 1-0.9216 2.184534 12.7488 12.7488 0 0 0-0.768 1.962666c-2.491733 6.894933-4.846933 13.0048-7.150933 18.824534l-157.149867 374.101333c-8.2944 25.7024-23.825067 50.141867-45.6704 71.338667C523.025067 937.0624 478.446933 955.733333 426.666667 955.733333z m-85.333334-256a17.066667 17.066667 0 0 1-17.066666-17.066666V341.333333c0-51.6096 18.295467-96.4096 54.391466-133.137066C415.5904 171.895467 460.3904 153.6 512 153.6c51.694933 0 96.238933 18.3296 132.386133 54.493867 36.096 36.096 54.7328 79.991467 55.3472 130.474666a17.066667 17.066667 0 0 1-16.8448 17.271467H682.666667a17.066667 17.066667 0 0 1-17.066667-16.861867c-0.512-41.847467-15.342933-76.765867-45.346133-106.752C590.318933 202.2912 554.922667 187.733333 512 187.733333c-42.9568 0-78.677333 14.592-109.2096 44.5952C372.992 262.656 358.4 298.376533 358.4 341.333333v69.5808c20.7872 3.310933 39.133867 12.834133 54.749867 28.433067C433.442133 459.656533 443.733333 484.096 443.733333 512a17.066667 17.066667 0 1 1-34.133333 0c0-18.7904-6.741333-34.645333-20.599467-48.520533-9.045333-9.045333-19.1488-14.933333-30.600533-17.7664V682.666667a17.066667 17.066667 0 0 1-17.066667 17.066666z" p-id="10007" fill="#000000"></path></svg>