<?xml version="1.0" standalone="no"?><!DOCTYPE svg PUBLIC "-//W3C//DTD SVG 1.1//EN" "http://www.w3.org/Graphics/SVG/1.1/DTD/svg11.dtd"><svg t="1546850049651" class="icon" style="" viewBox="0 0 1024 1024" version="1.1" xmlns="http://www.w3.org/2000/svg" p-id="2038" xmlns:xlink="http://www.w3.org/1999/xlink" width="200" height="200"><defs><style type="text/css"></style></defs><path d="M510.2 0.2C228.4 0.2 0 229.2 0 511.4c0 282.4 228.4 511.2 510.2 511.2 281.8 0 510.2-228.8 510.2-511.2C1020.2 229.2 791.8 0.2 510.2 0.2z m0.8 996.2c-267.2 0-484-217.2-484-485s216.6-485 484-485c267.2 0 484 217.2 484 485-0.2 267.8-216.8 485-484 485z" fill="#000000" p-id="2039"></path><path d="M551.2 221l-2.4 2.8c-12.2 14.2-11.2 35.4 2 48.6 63.2 63.6 102.4 151.4 102.4 248.4 0 95.4-38 182-99.6 245.4-12.8 13.2-13.8 34-1.8 48.2 13.6 16.2 38.2 17.2 53 2.2 75.4-76.8 122-182.2 122-298.4 0-116.6-46.8-222.2-122.8-299.2-14.8-15-39.2-14-52.8 2z" fill="#000000" p-id="2040"></path><path d="M487.6 345.4c-12.4-17-37-19-52.2-4.2l-0.8 0.6c-12.6 12.2-14.2 31.6-3.8 45.8 28 38 44.4 84.8 44.4 135.6 0 47-14.2 90.6-38.4 127-9.8 14.6-7 34.4 6.4 45.8 15.8 13.4 39.8 10.2 51.4-7 32-47.6 50.6-105 50.6-166.6 0.2-66.4-21.2-127.4-57.6-177zM281.8 519.2c0 43.2 24.8 78.4 55.4 78.4 30.6 0 55.4-35 55.4-78.4 0-43.2-24.8-78.4-55.4-78.4-30.6 0-55.4 35-55.4 78.4z" fill="#000000" p-id="2041"></path></svg>